<svg xmlns="http://www.w3.org/2000/svg" width="40" height="40" viewBox="0 0 40 40">
  <path d="M256 254.312c-7.207 0-12.822 4.294-19.712 11.264 5.931 5.958 10.912 11.264 19.712 11.264 8.791 0 15.259-6.723 19.712-11.141-4.558-5.174-11.018-11.387-19.712-11.387zm0 19.298c-4.347 0-7.885-3.608-7.885-8.034 0-4.435 3.538-8.034 7.885-8.034s7.885 3.608 7.885 8.034c0 4.435-3.538 8.034-7.885 8.034z" />
  <path d="M256 262.76c0-.695.255-1.329.669-1.822a4.223 4.223 0 0 0-.669-.053c-2.534 0-4.602 2.103-4.602 4.69s2.068 4.69 4.602 4.69 4.602-2.103 4.602-4.69c0-.202-.018-.405-.035-.607a2.811 2.811 0 0 1-1.742.607A2.813 2.813 0 0 1 256 262.76z" />
  <path fill="none" stroke="#FFF" strokeLinecap="round" strokeMiterlimit="10" strokeWidth="1.584" d="M241.084 279.612l29.744-29.744M244.78 283.132l29.744-29.744" />
  <path fill="none" stroke="#000" strokeLinecap="round" strokeMiterlimit="10" strokeWidth="3.696" d="M244.714 279.678l26.356-26.356" />
</svg>
